<svg xmlns="http://www.w3.org/2000/svg" viewBox="0 0 94.69 100"><defs><style>.cls-1{fill:#293f5e;}</style></defs><title>book</title><g id="Слой_2" data-name="Слой 2"><g id="Слой_1-2" data-name="Слой 1"><path class="cls-1" d="M19.41,0H5.88A5.88,5.88,0,0,0,0,5.88V94.12A5.88,5.88,0,0,0,5.88,100H19.41a5.88,5.88,0,0,0,5.88-5.88V5.88A5.88,5.88,0,0,0,19.41,0ZM15.28,81.66a2.94,2.94,0,1,1-2.35-3.17A2.94,2.94,0,0,1,15.28,81.66Zm0-11.27a2.94,2.94,0,0,1-5.88,0V28a2.94,2.94,0,0,1,5.88,0Z"/><path class="cls-1" d="M47.17,9.41H37.06a5.88,5.88,0,0,0-5.88,5.88V94.12A5.88,5.88,0,0,0,37.06,100H47.17a5.88,5.88,0,0,0,5.88-5.88V15.29a5.88,5.88,0,0,0-5.88-5.88ZM45.08,81.66a2.94,2.94,0,1,1-2.35-3.17A2.95,2.95,0,0,1,45.08,81.66Zm0-11.27a2.94,2.94,0,0,1-5.88,0V28a2.94,2.94,0,0,1,5.88,0Z"/><path class="cls-1" d="M94.59,93.05s.29,1.55-13-69.48a5.88,5.88,0,0,0-5.77-4.74H61.88a2.94,2.94,0,0,0-2.94,2.94V68.65l5,26.58A5.88,5.88,0,0,0,69.7,100H88.81A5.88,5.88,0,0,0,94.59,93.05ZM72.21,69.37,65.94,36.43a2.94,2.94,0,0,1,5.78-1.1L78,68.27a2.94,2.94,0,1,1-5.78,1.1Zm8.36,12.29a2.94,2.94,0,1,1-2.35-3.17A2.95,2.95,0,0,1,80.57,81.66Z"/></g></g></svg>