<svg xmlns="http://www.w3.org/2000/svg" viewBox="0 0 96.86 100"><defs><style>.cls-1{fill:#fff;}</style></defs><title>brain_w</title><g id="Слой_2" data-name="Слой 2"><g id="Слой_1-2" data-name="Слой 1"><path class="cls-1" d="M96.86,40.59a9.23,9.23,0,0,0-6.27-8.73V17.95a9.21,9.21,0,1,0-11.76-6l-7.75,5.54a9.19,9.19,0,0,0-10.22-.38L49.8,7.84V4.91A2.94,2.94,0,0,0,48.54,2.5a14,14,0,0,0-21.19,7.1A14,14,0,0,0,15.7,22.7,14,14,0,0,0,6.47,38.23a13.94,13.94,0,0,0,0,23.54A14,14,0,0,0,15.7,77.3,14,14,0,0,0,27.35,90.41a14,14,0,0,0,21.19,7.1,2.94,2.94,0,0,0,1.26-2.41V62.35H57a9.26,9.26,0,0,0,5.79,5.79V82.05a9.21,9.21,0,1,0,11.76,6l7.75-5.54a9.21,9.21,0,1,0,0-14.93L74.5,62.09A9.19,9.19,0,0,0,74.23,56l8.7-7.46a9.22,9.22,0,0,0,13.93-7.91Zm-18,37.19-7.75,5.54a9.19,9.19,0,0,0-2.45-1.27V68.14a9.19,9.19,0,0,0,2.45-1.27l7.75,5.54A9.21,9.21,0,0,0,78.83,77.78Zm-10.2-27.1v-17A9.22,9.22,0,0,0,74.5,22.22l7.75-5.54a9.19,9.19,0,0,0,2.45,1.27V31.86A9.22,9.22,0,0,0,79.1,44L70.4,51.5a9.2,9.2,0,0,0-1.77-.82Zm-19,5.79A12.37,12.37,0,0,1,37.45,67.06a2.94,2.94,0,1,1,0-5.88,6.47,6.47,0,0,0,0-12.94,2.94,2.94,0,0,1,0-5.88,12.28,12.28,0,0,1,6.47,1.84v-2A11.19,11.19,0,0,0,32.74,31a2.94,2.94,0,0,1,0-5.88A17.09,17.09,0,0,1,49.41,38.49h.4v-23l7.29,6.08a9.22,9.22,0,0,0,5.65,12.06v17A9.26,9.26,0,0,0,57,56.47Z"/></g></g></svg>