<svg xmlns="http://www.w3.org/2000/svg" xmlns:xlink="http://www.w3.org/1999/xlink" viewBox="0 0 100 100"><defs><style>.cls-1{fill:none;}.cls-2{clip-path:url(#clip-path);}.cls-3{fill:#fff;}</style><clipPath id="clip-path"><rect class="cls-1" width="100" height="100"/></clipPath></defs><title>earth_w_1</title><g id="Слой_2" data-name="Слой 2"><g id="Слой_1-2" data-name="Слой 1"><g class="cls-2"><path class="cls-3" d="M42.35,70.21c-2.94-.52-4.84-.15-5.26.1a7,7,0,0,0-1.78,3.23,6.49,6.49,0,0,0-.26,3.81,7.3,7.3,0,0,0,3.74.94,11.36,11.36,0,0,0,4.86-.62c3-1.48,3.8-4.21,3.28-5.65-.28-.38-1.76-1.31-4.59-1.81Zm0,0"/><path class="cls-3" d="M52.87,27.17C52.46,29.12,51,31,49.47,33c-1.37,1.76-3.43,4.43-3.25,5.78,0,.13.07.51.85,1.1.62.45,3.29.71,4.89.86A28.22,28.22,0,0,1,59,42c4.24,1.59,4.87,4.73,4.87,6.46,0,2.93-1.13,8-.67,11.55.31,2.48,1.17,2.69,1.58,2.8.19,0,4.79.91,18-20.86,4-6.5,7.53-13.16,9.94-17.82A50,50,0,0,0,42.5.57c1.23,2.25,2.77,5.15,4.29,8.22,6.19,12.46,6.5,16.37,6.07,18.39Zm0,0"/><path class="cls-3" d="M15.82,48.44c0-6.74,3.14-10.25,5.65-13.06,1.74-1.95,3.25-3.63,3.78-6.26.38-1.88-2.08-4.88-6.57-8a59.48,59.48,0,0,0-6.4-3.84A49.76,49.76,0,0,0,1.91,63.68C8.66,60,15.82,52.38,15.82,48.44Zm0,0"/></g><path class="cls-3" d="M96,30.47c-5,9.43-12.76,23-19.83,31-3.28,3.72-8,8.23-12.83,7-2.35-.59-5.3-2.41-6-7.75-.56-4.45.63-9.89.63-12.28,0-.3,0-.57-1.07-1C53.4,46.13,46.83,47,43.56,44.53a7.43,7.43,0,0,1-3.14-5c-.51-3.78,2.11-7.17,4.42-10.15A16.62,16.62,0,0,0,47.14,26c0-.25.21-2.93-5.67-14.74-1.81-3.64-3.68-7.09-4.94-9.37a49.73,49.73,0,0,0-20,11.05c6.56,3.63,15.9,10,14.43,17.36-.84,4.2-3.13,6.76-5.16,9-2.32,2.6-4.16,4.65-4.16,9.15,0,5-4.39,10.14-7,12.79a43.9,43.9,0,0,1-10.81,8A50,50,0,0,0,100,50a49.61,49.61,0,0,0-4-19.54ZM46.27,82.92c-.1,0-2.06,1.26-6.6,1.26-3.61,0-8.2-.87-9.83-4.14-2.28-4.55.55-12.56,4.25-14.76,3-1.8,8.57-1.37,12.5,0,3.07,1.06,5,2.6,5.79,4.59C54,74,52.13,80,46.27,82.92Zm0,0"/></g></g></svg>