<svg xmlns="http://www.w3.org/2000/svg" viewBox="0 0 116.5 100"><defs><style>.cls-1{fill:#fff;}</style></defs><title>hat</title><g id="Слой_2" data-name="Слой 2"><g id="Слой_1-2" data-name="Слой 1"><path class="cls-1" d="M94.42,53.12V76.56a6.84,6.84,0,0,1-6.83,6.83H28.88a6.84,6.84,0,0,1-6.83-6.83V53.12L52.46,66.9A14,14,0,0,0,64,66.9L94.42,53.12Z"/><path class="cls-1" d="M116.47,30.61a7.09,7.09,0,0,0-4.12-6.1L61.27.67a7.15,7.15,0,0,0-6.06,0L4.14,24.51a7.17,7.17,0,0,0,.07,13L55.28,60.68a7.16,7.16,0,0,0,5.92,0l48.47-22V96.59a3.41,3.41,0,0,0,6.83,0C116.5,26.19,116.51,31,116.47,30.61Z"/></g></g></svg>