<svg viewBox="0 0 140 102" fill="none" xmlns="http://www.w3.org/2000/svg"><path d="M105.186 76.838c0-11.8-6.6-17.5-14.7-17.5h-42.5c-8.1 0-13.9 7.7-13.9 19.5h13.9c5.4 0 26.2.3 39.6 0 10.3-.2 7 0 17.6 0-.051-2.1 0-1.7 0-2z" fill="#FF5733"/><path d="M101.287 79.238l-2.1-9.8c12.9-2.8 23.7-16.5 23.8-16.6l7.9 6.1c-.5.6-13.1 16.7-29.6 20.3z" fill="#FF5733"/><path d="M133.886 58.738l-7-8c-1-.8-1.1-2.2-.4-3.2l1.3-1.6c2.2-2.8 6.2-3.2 9-1s3.2 6.2 1 9l-3.9 4.8z" fill="#fff"/><path d="M133.886 59.238c-.1 0-.3-.1-.4-.2l-7-8c-.5-.4-.9-1.1-1-1.8-.1-.7.1-1.5.6-2l1.3-1.6c2.4-3 6.7-3.4 9.7-1.1 3 2.4 3.4 6.7 1.1 9.7l-3.9 4.8c-.1.1-.3.2-.4.2zm-1.1-15.2c-1.7 0-3.4.8-4.6 2.2l-1.3 1.6c-.3.4-.4.8-.4 1.3.1.5.3.9.7 1.2l6.7 7.6 3.5-4.4c2-2.5 1.6-6.2-.9-8.3-1.1-.8-2.4-1.2-3.7-1.2z" fill="#000"/><path d="M128.986 43.938c-1.2-.7-2.7-.2-3.4 1l-2.2 4.1c-.7 1.2-.2 2.7 1 3.4.6.3 1.3.4 1.9.2.6-.2 1.2-.6 1.5-1.2l2.2-4.1c.7-1.2.2-2.7-1-3.4z" fill="#fff"/><path d="M125.587 53.238c-.5 0-1-.1-1.4-.4-.7-.4-1.2-1-1.5-1.8-.2-.8-.2-1.6.2-2.3l2.2-4.1c.4-.7 1-1.2 1.8-1.5.8-.2 1.6-.2 2.3.2 1.5.8 2 2.6 1.2 4.1l-2.2 4.1c-.4.7-1 1.2-1.8 1.5-.2.1-.5.2-.8.2zm2.2-9.1c-.2 0-.4 0-.6.1-.5.2-.9.5-1.2 1l-2.2 4.1c-.3.5-.3 1-.2 1.5.2.5.5.9 1 1.2.5.2 1 .3 1.5.2.5-.2 1-.5 1.2-1l2.2-4.1c.5-1 .2-2.2-.8-2.7-.2-.2-.6-.3-.9-.3z" fill="#000"/><path d="M134.387 56.038c-3-5.7-8.7-7.1-9.4-7.2-2-.5-4 .8-4.5 2.8-.4 2 .8 4 2.8 4.5.1 0 3 .8 4.4 3.4 1 1.8 3.2 2.5 5.1 1.6 1.4-.8 2.2-2.3 2-3.8 0-.5-.1-.9-.4-1.3z" fill="#fff"/><path d="M131.087 61.938c-1.5 0-3-.8-3.8-2.3-1.3-2.4-4-3.1-4.1-3.2-2.2-.5-3.7-2.8-3.2-5.1s2.8-3.7 5.1-3.2c.7.2 6.6 1.6 9.7 7.5.2.4.4.9.4 1.4.2 1.8-.6 3.5-2.2 4.3-.5.5-1.2.6-1.9.6zm-6.8-12.8c-1.5 0-2.8 1-3.2 2.5-.4 1.7.7 3.5 2.4 3.9.1 0 3.3.9 4.7 3.7.4.8 1.1 1.3 1.9 1.6.8.3 1.7.2 2.5-.2 1.2-.6 1.9-2 1.7-3.3-.1-.4-.2-.7-.3-1.1-2.9-5.5-8.4-6.8-9-7-.3 0-.5-.1-.7-.1z" fill="#000"/><path d="M36.887 73.939l6.5 2.3 3-9.7-6.9-2.3c-12.8-3.4-22.8-17.6-22.9-17.8l-8.2 5.7c.4.8 12.1 17.4 28.5 21.8z" fill="#FF5733"/><path d="M5.287 51.938l7.4-7.7c1-.7 1.2-2.2.5-3.2l-1.2-1.7c-2.1-2.9-6.1-3.5-8.9-1.4-2.9 2.1-3.5 6.1-1.4 8.9l3.6 5.1z" fill="#fff"/><path d="M5.287 52.438c-.2 0-.3-.1-.4-.2l-3.6-5c-2.2-3.1-1.5-7.4 1.5-9.6 3.1-2.2 7.4-1.5 9.6 1.5l1.2 1.7c.9 1.2.6 3-.6 3.9l-7.3 7.6c-.1 0-.2.1-.4.1zm1.6-15.2c-1.2 0-2.4.4-3.5 1.1-2.6 1.9-3.2 5.6-1.3 8.2l3.3 4.5 7-7.2c.9-.6 1-1.7.5-2.5l-1.2-1.7c-1.2-1.5-3-2.4-4.8-2.4z" fill="#000"/><path d="M10.886 37.338c1.2-.6 2.7-.1 3.3 1.2l2 4.2c.6 1.2.1 2.7-1.2 3.3-.6.3-1.3.3-1.9.1-.6-.2-1.2-.7-1.5-1.3l-2-4.2c-.5-1.2.1-2.7 1.3-3.3z" fill="#fff"/><path d="M13.986 46.838c-.3 0-.7-.1-1-.2-.8-.3-1.4-.8-1.7-1.6l-2-4.2c-.3-.7-.4-1.5-.1-2.3.3-.8.8-1.4 1.5-1.7 1.5-.7 3.3-.1 4 1.4l2 4.2c.3.7.4 1.5.1 2.3-.3.8-.8 1.4-1.5 1.7-.5.3-.9.4-1.3.4zm-2.9-9c-.5.2-.8.6-1 1.1-.2.5-.2 1 .1 1.5l2 4.2c.2.5.6.9 1.2 1 .5.2 1 .1 1.5-.1s.8-.6 1-1.1c.2-.5.2-1-.1-1.5l-2-4.2c-.5-1-1.7-1.4-2.7-.9z" fill="#000"/><path d="M4.887 49.138c3.3-5.5 9-6.7 9.7-6.8 2-.4 4 1 4.3 3 .4 2-1 3.9-3 4.3-.1 0-3.1.7-4.6 3.2-1 1.8-3.3 2.4-5.1 1.3-1.4-.8-2.1-2.4-1.8-3.9.1-.3.3-.7.5-1.1z" fill="#fff"/><path d="M8.087 55.338c-.7 0-1.5-.2-2.1-.6-1.5-.9-2.3-2.7-2-4.4.1-.5.3-.9.5-1.4 3.4-5.7 9.4-6.9 10-7 1.1-.2 2.2.1 3.2.7.9.7 1.5 1.6 1.7 2.7.4 2.3-1.1 4.5-3.4 4.9 0 0-2.8.6-4.2 3-.8 1.3-2.2 2.1-3.7 2.1zm7.1-12.5h-.6c-.6.1-6.2 1.2-9.4 6.5-.2.3-.3.7-.4 1-.3 1.3.4 2.7 1.5 3.4 1.5.9 3.5.4 4.4-1.1 1.6-2.7 4.8-3.4 4.9-3.4 1.8-.3 2.9-2 2.6-3.7-.1-1.6-1.4-2.7-3-2.7zM51.687 55.637c-.5.3-1.1.5-1.7.6h-.1v-.2c-.4-1.8-.7-3.7-.7-5.7 0-2.9.4-5.7 1.1-8.3 3 .9 5.2 3.7 5.2 6.9.2 2.9-1.4 5.4-3.8 6.7z" fill="#000"/><path d="M49.987 56.737c-.3 0-.5-.2-.5-.5v-.2c-.4-1.8-.6-3.7-.7-5.7 0-2.9.3-5.7 1.2-8.4 0-.1.1-.2.2-.3.1-.1.3-.1.4 0 3.3 1 5.5 4 5.6 7.4.1 3-1.6 5.7-4.2 7.1-.5.3-1.1.5-1.8.7-.1-.1-.1-.1-.2-.1zm.8-14.1c-.7 2.5-1 5.1-1 7.6 0 1.8.2 3.6.6 5.3.4-.1.7-.3 1.1-.4 2.3-1.2 3.7-3.6 3.7-6.2-.1-2.8-1.8-5.3-4.4-6.3z" fill="#000"/><path d="M48.686 40.838c.3 0 .6 0 .9.1v-6.7c0-13.6 11-24.6 24.6-24.6 13.6 0 24.6 11 24.6 24.6l-.1 16.8c0 5-1.4 10-4.3 14.1-4.4 6.3-11.7 10.5-20 10.6-2.7 0-5.3-.3-7.7-1.1-8.3-2.6-14.9-9.4-16.9-18v-.2c-.2-.7-.3-1.5-.4-2.3h-.5c-3.7.1-6.8-2.9-6.9-6.6 0-3.6 2.9-6.6 6.7-6.7z" fill="#fff"/><path d="M74.086 76.338c-2.6 0-5.1-.4-7.5-1.1-8.6-2.6-15.2-9.7-17.2-18.3 0-.1 0-.1-.1-.2-.1-.5-.2-1.1-.3-1.8h-.2c-3.9 0-7.2-3.2-7.3-7.1 0-1.9.7-3.8 2-5.2 1.3-1.4 3.2-2.2 5.1-2.2h.5v-6.1c0-14 11.3-25.2 25.2-25.2 13.9 0 25.1 11.3 25.1 25.1l-.1 16.8c0 5.4-1.5 10.4-4.4 14.4-4.7 6.7-12.3 10.7-20.4 10.9h-.4zm-24.7-22.5c.2 0 .5.2.5.4.1.9.2 1.6.4 2.2v.2c2 8.4 8.3 15.1 16.6 17.6 2.4.8 5 1.1 7.6 1.1 7.8-.1 15.1-4 19.6-10.4 2.7-3.9 4.2-8.7 4.2-13.9l.1-16.8c0-13.3-10.8-24.1-24.1-24.1s-24.2 10.8-24.2 24.1v6.7c0 .1-.1.3-.2.4-.1.1-.3.1-.4.1-.3 0-.6-.1-.9-.1-1.7 0-3.2.7-4.4 1.9-1.2 1.2-1.8 2.8-1.8 4.5.1 3.5 2.9 6.2 6.4 6.2.3-.1.4-.1.6-.1z" fill="#000"/><path d="M53.186 45.737c6.3 2.9 4.4 5.2 11.8 6 5.5.6 16.4-.3 22.4-2 2-.5 2.1-4 3.1-3.7 4.2 1.1 6.3-7.4 8.8-7.8 2.5-.4 15.7 6.9 12.9 17.9-1.3 5-4.7 5.8-6.2 5.9-.4 0-.6.4-.5.7 1.2 3.3 4.7 16-1.6 24.6-12.6 16.9-27.6 17.4-47 6.7-17.7-9.7-10.7-25.6-10.7-26.8 0-1.2-10.8 5.3-11.6-6.3-.9-14.6 12.3-18 18.6-15.2z" fill="#fff"/><path d="M79.886 101.838c-6.8 0-14.5-2.4-23.3-7.3-10.6-5.9-14.4-14.8-11.1-26.5 0-.2.1-.3.1-.4-.3.1-.6.1-.9.2-2 .5-5.3 1.4-7.8-.4-1.6-1.2-2.6-3.4-2.8-6.5-.5-7.8 2.9-11.9 5.9-14 4.6-3.2 10.2-3.1 13.4-1.6 2.7 1.2 3.9 2.4 5 3.3 1.4 1.3 2.5 2.2 6.7 2.7 5.5.6 16.4-.4 22.3-1.9.9-.2 1.3-1.3 1.7-2.2.4-.8.8-1.8 1.7-1.6 2.2.6 3.8-2 5.3-4.3 1.1-1.8 2.1-3.3 3.3-3.5 1.7-.2 6.5 2.2 9.9 5.9 2.4 2.7 5 7 3.6 12.6-1.3 5.3-5.1 6.2-6.7 6.3.5 1.7 5.2 15.7-1.7 25.1-7.2 9.4-15.1 14.1-24.6 14.1zm-33.9-35.3c.2 0 .4 0 .5.2.2.1.2.3.2.5s-.1.5-.2 1.1c-3.1 11.2.5 19.7 10.6 25.3 20.3 11.3 34.6 9.3 46.4-6.5 6.7-9 2.1-22.6 1.5-24.1-.1-.3-.1-.7.1-.9.2-.3.5-.5.8-.5 1.7-.1 4.6-1 5.8-5.5 1.3-5.1-1.1-9.2-3.3-11.7-3.4-3.8-7.9-5.7-9-5.6-.8.1-1.7 1.6-2.6 3-1.6 2.5-3.5 5.5-6.4 4.8-.1.1-.3.6-.5 1-.4 1-1 2.4-2.4 2.7-6 1.6-17 2.6-22.6 2-4.5-.5-5.7-1.6-7.2-2.9-1-.9-2.2-2-4.7-3.1-3.1-1.4-8.3-1.3-12.4 1.5-2.8 1.9-6 5.7-5.4 13.1.2 2.8 1 4.7 2.4 5.7 2.1 1.5 5.1.7 6.9.3.7-.2 1.1-.4 1.5-.4z" fill="#000"/><path d="M89.078 44.225c1.044-.098 1.803-1.114 1.695-2.268-.109-1.155-1.044-2.011-2.088-1.913-1.045.098-1.804 1.114-1.695 2.268.108 1.155 1.043 2.012 2.088 1.913zM71.381 46.023c1.045-.098 1.804-1.114 1.695-2.268-.108-1.155-1.043-2.012-2.088-1.913-1.044.098-1.803 1.114-1.695 2.268.109 1.155 1.044 2.011 2.088 1.913z" fill="#000"/><path d="M70.386 55.138c2.651 0 4.8-1.746 4.8-3.9s-2.149-3.9-4.8-3.9c-2.65 0-4.8 1.746-4.8 3.9s2.15 3.9 4.8 3.9zM92.386 52.438a3.9 3.9 0 100-7.8 3.9 3.9 0 000 7.8z" fill="#FFD1CB"/><path d="M82.886 59.838c-.4 0-.8 0-1.3-.1l.2-1c4.2.7 5.1-3 5.2-3.1l1 .2c-.1 0-1.1 4-5.1 4z" fill="#000"/><path d="M81.742 53.321c4.343-.408 7.706-2.433 7.51-4.523-.197-2.089-3.878-3.452-8.222-3.043-4.344.408-7.706 2.433-7.51 4.522.197 2.09 3.878 3.453 8.222 3.044z" fill="#fff"/><path d="M80.186 53.938c-1.6 0-3.1-.2-4.3-.7-1.8-.7-2.8-1.7-2.9-2.9-.1-1.2.7-2.4 2.3-3.4 1.5-.9 3.5-1.5 5.7-1.7 2.2-.2 4.3 0 5.9.6 1.8.7 2.8 1.7 2.9 2.9.2 2.4-3.3 4.7-8 5.1-.5.1-1 .1-1.6.1zm2.4-7.8c-.5 0-1 0-1.5.1-2 .2-3.9.8-5.3 1.6-1.2.7-1.9 1.6-1.8 2.4.1.8.9 1.6 2.2 2.1 1.5.6 3.4.8 5.5.6 4.4-.4 7.2-2.4 7.1-4-.1-.8-.9-1.6-2.2-2.1-1.2-.5-2.5-.7-4-.7z" fill="#000"/><path d="M41.886 35.238s-1.8-3-5.2-.5c-3.4 2.6-7.9 11.1-7.9 11.1l-2.9-2.3s-4.1-21.5 8-28.6c12.1-7.1 18-18.6 43.4-13.8 17.5 3.3 21.9 23.6 21.9 23.6l-45.6 5-11.7 5.5z" fill="#FF5733"/><path d="M25.886 58.938a8.4 8.4 0 100-16.8 8.4 8.4 0 000 16.8z" fill="#fff"/><path d="M25.886 59.438c-4.9 0-8.9-4-8.9-8.9s4-8.9 8.9-8.9 8.9 4 8.9 8.9-4 8.9-8.9 8.9zm0-16.8c-4.3 0-7.9 3.5-7.9 7.9s3.5 7.9 7.9 7.9 7.9-3.5 7.9-7.9-3.6-7.9-7.9-7.9z" fill="#000"/><path d="M45.386 47.238c-1.4 0-2.8-.4-4.1-1.2-3.5-2.3-4.4-6.9-2.2-10.4.7-1.1 18-26.6 61.3-15.6 4 1 6.4 5.1 5.4 9.1s-5.1 6.4-9.1 5.4c-33.1-8.4-45 9.1-45.1 9.3-1.3 2.3-3.7 3.4-6.2 3.4z" fill="#fff"/><path d="M45.386 47.738c-1.6 0-3.1-.5-4.4-1.3-3.7-2.4-4.7-7.4-2.3-11.1.7-1.1 18.2-26.9 61.9-15.8 4.3 1.1 6.9 5.4 5.8 9.7-1.1 4.3-5.4 6.9-9.7 5.8-32.6-8.2-44.5 9-44.6 9.1-1.5 2.3-4 3.6-6.7 3.6zm34.5-29.9c-28.1 0-39.8 17.2-40.3 18.1-1 1.6-1.4 3.4-1 5.3.4 1.8 1.5 3.4 3 4.4 1.1.7 2.5 1.1 3.8 1.1 2.4 0 4.6-1.2 5.9-3.2.1-.2 12.2-18 45.7-9.5 3.7.9 7.6-1.3 8.5-5.1.5-1.8.2-3.7-.8-5.3-1-1.6-2.5-2.7-4.3-3.2-7.6-1.8-14.4-2.6-20.5-2.6z" fill="#000"/></svg>