<svg xmlns="http://www.w3.org/2000/svg" viewBox="0 0 62.35 100"><defs><style>.cls-1{fill:#293f5e;}</style></defs><title>per</title><g id="Слой_2" data-name="Слой 2"><g id="Слой_1-2" data-name="Слой 1"><path class="cls-1" d="M13.44,34.9H48.92a18.72,18.72,0,0,0-8.56-10.53C50,15.9,43.94,0,31.18,0S12.33,15.89,22,24.38A18.72,18.72,0,0,0,13.44,34.9Z"/><path class="cls-1" d="M56.47,40.78H5.88A5.89,5.89,0,0,0,0,46.67V54.9a5.89,5.89,0,0,0,5.88,5.88H8.18l4.08,34A5.89,5.89,0,0,0,18.1,100H44.25a5.89,5.89,0,0,0,5.84-5.18l4.08-34h2.29a5.89,5.89,0,0,0,5.88-5.88V46.67a5.89,5.89,0,0,0-5.88-5.88Zm-19,43.53H24.9a2.94,2.94,0,0,1,0-5.88H37.45a2.94,2.94,0,0,1,0,5.88Zm0-12.55H24.9a2.94,2.94,0,1,1,0-5.88H37.45a2.94,2.94,0,0,1,0,5.88Z"/></g></g></svg>