<?xml version="1.0" encoding="utf-8"?>
<!-- Generator: Adobe Illustrator 20.1.0, SVG Export Plug-In . SVG Version: 6.00 Build 0)  -->
<svg version="1.1" id="Слой_1" xmlns="http://www.w3.org/2000/svg" xmlns:xlink="http://www.w3.org/1999/xlink" x="0px" y="0px"
	 viewBox="0 0 28.3 28.3" style="enable-background:new 0 0 28.3 28.3;" xml:space="preserve">
<path d="M27.6,24.8c-2.5-2.5-4.9-4.9-7.4-7.4c0,0-0.1-0.1-0.1-0.1c0.1-0.2,0.2-0.4,0.3-0.6c0.9-1.5,1.5-3.1,1.6-4.9
	c0.2-3.3-0.8-6.2-3.2-8.6c-1.7-1.7-3.7-2.7-6-3.1C8.1-0.6,3.5,1.7,1.3,5.8C0.6,7.1,0.2,8.6,0,10.1c0,0.1,0,0.3,0,0.4
	c0,0.4,0,0.8,0,1.1c0,0.3,0.1,0.6,0.1,0.9c0.6,3.6,2.5,6.4,5.7,8.2c1.7,1,3.6,1.4,5.5,1.3c2.1-0.1,4-0.7,5.8-1.8
	c0.1,0,0.1-0.1,0.2-0.1c0.4,0.4,0.8,0.8,1.2,1.2c2.3,2.3,4.6,4.6,7,7c0.2,0.2,0.4,0.2,0.6,0c0.7-0.7,1.4-1.4,2.1-2.1
	c0.1-0.1,0.1-0.1,0.1-0.2c0-0.1,0-0.1,0-0.2C28.1,25.4,27.8,25.1,27.6,24.8z M10.9,19.4c-4.6-0.1-8.4-3.9-8.3-8.6
	C2.7,6.3,6.4,2.6,11,2.6c4.7,0,8.4,3.8,8.4,8.4C19.4,15.8,15.6,19.5,10.9,19.4z"/>
</svg>
