<svg xmlns="http://www.w3.org/2000/svg" viewBox="0 0 103 100"><defs><style>.cls-1{fill:#293f5e;}</style></defs><title>uni</title><g id="Слой_2" data-name="Слой 2"><g id="Слой_1-2" data-name="Слой 1"><path class="cls-1" d="M103,87.45v6.67A6,6,0,0,1,96.94,100H6.06A6,6,0,0,1,0,94.12V87.45a6,6,0,0,1,6.06-5.88H96.94A6,6,0,0,1,103,87.45Z"/><path class="cls-1" d="M9.69,38.43V75.69H93.31V38.43h-19V69H61V38.43H42V69H28.68V38.43Z"/><path class="cls-1" d="M3,32.55H100a2.93,2.93,0,0,0,1.49-5.5L53,.38a3.11,3.11,0,0,0-3,0L1.54,27A2.93,2.93,0,0,0,3,32.55Z"/></g></g></svg>